name rise38.3101peak57.3503fall81.6963.mot
datacolumns 19
datarows 12
range 18.02493500000000 18.04327000000000
endheader
time	ground_force1_vx	ground_force1_vy	ground_force1_vz	ground_force1_px	ground_force1_py	ground_force1_pz	ground_force2_vx	ground_force2_vy	ground_force2_vz	ground_force2_px	ground_force2_py	ground_force2_pz	ground_torque1_x	ground_torque1_y	ground_torque1_z	ground_torque2_x	ground_torque2_y	ground_torque2_z	
18.02493500000000	74.52200900000000	785.04495999999995	56.68112400000000	0.33875100000000	0.00000000000000	0.11546500000000	0.00000000000000	0.00000000000000	0.00000000000000	0.00000000000000	0.00000000000000	0.00000000000000	0.00000000000000	20.61296100000000	0.00000000000000	0.00000000000000	0.00000000000000	0.00000000000000	
18.02660700000000	73.85184900000000	787.08914500000003	56.75934000000000	0.33751200000000	0.00000000000000	0.11546100000000	0.00000000000000	0.00000000000000	0.00000000000000	0.00000000000000	0.00000000000000	0.00000000000000	0.00000000000000	20.65989200000000	0.00000000000000	0.00000000000000	0.00000000000000	0.00000000000000	
18.02827500000000	73.17048500000000	788.97021900000004	56.83423700000000	0.33629600000000	0.00000000000000	0.11545600000000	0.00000000000000	0.00000000000000	0.00000000000000	0.00000000000000	0.00000000000000	0.00000000000000	0.00000000000000	20.70865600000000	0.00000000000000	0.00000000000000	0.00000000000000	0.00000000000000	
18.02993300000000	72.47836500000000	790.68667100000005	56.90585500000000	0.33510200000000	0.00000000000000	0.11545200000000	0.00000000000000	0.00000000000000	0.00000000000000	0.00000000000000	0.00000000000000	0.00000000000000	0.00000000000000	20.75928600000000	0.00000000000000	0.00000000000000	0.00000000000000	0.00000000000000	
18.03159900000000	71.77589399999999	792.23717399999998	56.97415500000000	0.33392900000000	0.00000000000000	0.11544700000000	0.00000000000000	0.00000000000000	0.00000000000000	0.00000000000000	0.00000000000000	0.00000000000000	0.00000000000000	20.81176300000000	0.00000000000000	0.00000000000000	0.00000000000000	0.00000000000000	
18.03327300000000	71.06343400000000	793.62059699999998	57.03902600000000	0.33277700000000	0.00000000000000	0.11544100000000	0.00000000000000	0.00000000000000	0.00000000000000	0.00000000000000	0.00000000000000	0.00000000000000	0.00000000000000	20.86601400000000	0.00000000000000	0.00000000000000	0.00000000000000	0.00000000000000	
18.03493400000000	70.34130900000000	794.83602800000006	57.10028800000000	0.33164600000000	0.00000000000000	0.11543500000000	0.00000000000000	0.00000000000000	0.00000000000000	0.00000000000000	0.00000000000000	0.00000000000000	0.00000000000000	20.92191400000000	0.00000000000000	0.00000000000000	0.00000000000000	0.00000000000000	
18.03660100000000	69.60980700000000	795.88278200000002	57.15770000000000	0.33053400000000	0.00000000000000	0.11542900000000	0.00000000000000	0.00000000000000	0.00000000000000	0.00000000000000	0.00000000000000	0.00000000000000	0.00000000000000	20.97929400000000	0.00000000000000	0.00000000000000	0.00000000000000	0.00000000000000	
18.03827400000000	68.86918700000000	796.76041499999997	57.21096100000000	0.32944100000000	0.00000000000000	0.11542200000000	0.00000000000000	0.00000000000000	0.00000000000000	0.00000000000000	0.00000000000000	0.00000000000000	0.00000000000000	21.03794100000000	0.00000000000000	0.00000000000000	0.00000000000000	0.00000000000000	
18.03993600000000	68.11967799999999	797.46873800000003	57.25972200000000	0.32836500000000	0.00000000000000	0.11541500000000	0.00000000000000	0.00000000000000	0.00000000000000	0.00000000000000	0.00000000000000	0.00000000000000	0.00000000000000	21.09760300000000	0.00000000000000	0.00000000000000	0.00000000000000	0.00000000000000	
18.04160400000000	67.36148900000001	798.00782800000002	57.30358600000000	0.32730500000000	0.00000000000000	0.11540800000000	0.00000000000000	0.00000000000000	0.00000000000000	0.00000000000000	0.00000000000000	0.00000000000000	0.00000000000000	21.15799000000000	0.00000000000000	0.00000000000000	0.00000000000000	0.00000000000000	
18.04327000000000	66.59480700000000	798.37803499999995	57.34211800000000	0.32626100000000	0.00000000000000	0.11540000000000	0.00000000000000	0.00000000000000	0.00000000000000	0.00000000000000	0.00000000000000	0.00000000000000	0.00000000000000	21.21878300000000	0.00000000000000	0.00000000000000	0.00000000000000	0.00000000000000	
